:SAMPLES-PER-SECOND 30
:FRAME-RANGE 1-3358
:FULLY-SPECIFIED
:DEGREES
2204
root  -63.4048 34.2879 11.1701 15.4384 44.1324 4.65424
RightUpLeg  -46.1628 -7.51555 -15.5756
RightLeg  50.2094 3.72187 4.43933
RightFoot  -17.7484 0.854821 17.3158
RightToes  -1.11029e-010 1.2921e-014 -6.02303e-014
Spine  5.62974 -0.202683 7.53604
Spine1  4.2279 1.50156 -4.54621
HEad  1.24156 9.61694 -14.7572
LeftShoulder1  0.369411 1.64501 -15.6973
LeftArm  -9.72204 24.5046 -23.6467
LeftForeArm  48.9434 -51.6107 -10.3444
LeftHand  0.157682 7.57677 9.79662
RightShoulder  1.63377 2.79305 20.4515
RightArm  -36.9478 14.5381 34.0989
RightForeArm  15.3942 -0.884916 -2.60494
RightHand  -0.101419 -4.531 -11.6303
LeftUpLeg  1.42531 -13.4574 14.6163
LeftLeg  31.0676 -4.69938 -2.6914
LeftFoot  -24.7245 -2.08465 -18.8769
LeftToes  -1.90334e-010 -8.83595e-011 4.99953e-011
2205
root  -63.2369 34.2416 13.2029 16.1346 45.7184 5.0795
RightUpLeg  -44.9873 -9.0885 -13.3211
RightLeg  53.8152 3.66567 4.9912
RightFoot  -21.8973 1.10834 13.5557
RightToes  -1.11029e-010 1.2921e-014 -6.02303e-014
Spine  5.79893 -0.00806161 8.31385
Spine1  4.06791 1.86622 -5.59544
HEad  -0.894355 10.7767 -14.9067
LeftShoulder1  0.25847 2.12871 -15.3941
LeftArm  -13.9868 25.9115 -22.5157
LeftForeArm  49.4918 -55.0923 -11.9401
LeftHand  0.132307 7.37256 9.32016
RightShoulder  1.6061 3.0821 18.6818
RightArm  -37.6031 16.9019 31.7658
RightForeArm  14.1633 -1.39772 -3.03385
RightHand  -0.0905577 -4.62745 -11.3639
LeftUpLeg  -1.06254 -15.7844 14.8843
LeftLeg  37.7636 0.88971 1.12741
LeftFoot  -16.516 -0.632826 -16.0925
LeftToes  -1.90334e-010 -8.83595e-011 4.99953e-011
2206
root  -62.907 34.4793 15.0296 16.2515 48.1014 4.66583
RightUpLeg  -42.2241 -10.001 -10.8239
RightLeg  54.4518 2.7553 3.74766
RightFoot  -24.3183 1.12127 11.2824
RightToes  -1.11029e-010 1.2921e-014 -6.02303e-014
Spine  5.78911 0.372478 10.3431
Spine1  3.99234 2.34652 -6.0307
HEad  -2.52051 11.3376 -15.4366
LeftShoulder1  0.248767 2.14898 -14.8976
LeftArm  -17.3673 25.8146 -22.794
LeftForeArm  48.3367 -57.7697 -13.5251
LeftHand  0.121473 7.32008 8.9442
RightShoulder  1.53348 3.29581 16.6019
RightArm  -38.1168 17.7803 28.7641
RightForeArm  12.782 -1.8883 -3.33237
RightHand  -0.107152 -4.3423 -10.123
LeftUpLeg  -5.56121 -15.6089 15.0627
LeftLeg  46.1605 4.94974 5.92884
LeftFoot  -9.47196 0.0886581 -1.94996
LeftToes  -1.90334e-010 -8.83595e-011 4.99953e-011
2207
root  -62.4595 35.1775 16.9726 16.6085 50.7167 5.28198
RightUpLeg  -36.994 -10.4175 -8.98461
RightLeg  51.8416 1.37859 1.51595
RightFoot  -25.6654 1.0113 9.4196
RightToes  -1.11029e-010 1.2921e-014 -6.02303e-014
Spine  5.7179 1.07841 10.6222
Spine1  3.40588 2.90717 -6.02227
HEad  -2.64039 11.0599 -15.1959
LeftShoulder1  0.188511 2.37547 -13.5416
LeftArm  -18.091 23.8978 -24.1525
LeftForeArm  46.5118 -59.439 -14.7599
LeftHand  0.08946 7.13585 7.82057
RightShoulder  1.49869 3.57147 15.0323
RightArm  -38.2144 17.2693 25.2085
RightForeArm  11.6324 -3.16301 -3.55089
RightHand  -0.123815 -4.03576 -9.3151
LeftUpLeg  -8.6747 -12.424 14.5718
LeftLeg  50.8291 6.09303 8.42473
LeftFoot  -12.5946 0.0443567 -2.84755
LeftToes  -1.90334e-010 -8.83595e-011 4.99953e-011
2208
root  -61.767 36.354 18.9703 17.8208 54.6235 7.35361
RightUpLeg  -29.0216 -11.8812 -7.83825
RightLeg  45.2358 -0.634197 -0.994844
RightFoot  -25.1492 0.907366 8.89102
RightToes  -1.11029e-010 1.2921e-014 -6.02303e-014
Spine  4.6478 1.52228 10.2163
Spine1  2.91754 3.13859 -6.20921
HEad  -0.169459 9.69273 -13.354
LeftShoulder1  0.222765 2.14044 -12.2669
LeftArm  -17.4069 20.3019 -25.9261
LeftForeArm  44.1589 -59.3434 -14.9195
LeftHand  0.0513431 6.78067 6.64787
RightShoulder  1.40565 3.48354 13.8285
RightArm  -38.5627 14.8231 23.2248
RightForeArm  11.6363 -4.52026 -4.07736
RightHand  -0.140939 -3.8411 -9.49661
LeftUpLeg  -10.7539 -7.62878 12.4921
LeftLeg  50.8156 6.68034 9.17032
LeftFoot  -13.8885 0.020726 -2.8121
LeftToes  -1.90334e-010 -8.83595e-011 4.99953e-011
2209
root  -60.8334 37.871 21.0224 20.358 60.7685 10.8658
RightUpLeg  -19.0447 -13.8643 -6.73559
RightLeg  35.3876 -4.50749 -3.68734
RightFoot  -21.4885 0.73723 9.92748
RightToes  -1.11029e-010 1.2921e-014 -6.02303e-014
Spine  2.04344 1.38065 8.98865
Spine1  2.82894 2.537 -5.26735
HEad  5.92045 7.24639 -9.83869
LeftShoulder1  0.28653 1.73372 -11.2752
LeftArm  -14.2561 14.337 -27.7612
LeftForeArm  39.2746 -56.4687 -13.5549
LeftHand  0.016148 6.22263 5.97549
RightShoulder  1.31646 3.25046 13.1293
RightArm  -39.219 10.8005 21.9601
RightForeArm  11.5744 -5.02895 -4.82705
RightHand  -0.152993 -3.56597 -8.87882
LeftUpLeg  -11.9524 -2.27024 9.71432
LeftLeg  47.1332 7.71369 9.23387
LeftFoot  -14.5888 0.0167112 -2.49541
LeftToes  -1.90334e-010 -8.83595e-011 4.99953e-011
2210
root  -59.7987 39.4502 23.0378 25.2015 67.348 16.4738
RightUpLeg  -12.2111 -14.8121 -5.86409
RightLeg  29.8738 -7.96209 -5.14917
RightFoot  -13.1178 0.12911 14.0341
RightToes  -1.11029e-010 1.2921e-014 -6.02303e-014
Spine  -1.09309 0.598728 7.0623
Spine1  3.01736 1.46571 -4.8452
HEad  12.5569 4.43891 -5.92733
LeftShoulder1  0.339995 1.36673 -10.504
LeftArm  -10.1847 7.71169 -29.4217
LeftForeArm  34.2226 -52.6567 -11.954
LeftHand  0.00474821 6.04923 5.5022
RightShoulder  1.24036 2.88031 13.0838
RightArm  -39.991 7.48582 21.0772
RightForeArm  10.2333 -4.88649 -5.60392
RightHand  -0.130804 -3.74617 -8.20013
LeftUpLeg  -12.2693 3.06205 6.26167
LeftLeg  41.4801 8.30114 8.17661
LeftFoot  -15.36 -0.0356773 -3.63963
LeftToes  -1.90334e-010 -8.83595e-011 4.99953e-011
2211
root  -58.8062 40.8733 24.7966 31.7384 73.7373 23.6078
RightUpLeg  -10.8599 -18.236 -4.93895
RightLeg  32.0338 -7.82741 -5.48921
RightFoot  -1.04804 -1.47434 16.1893
RightToes  -1.11029e-010 1.2921e-014 -6.02303e-014
Spine  -3.47584 -0.609433 5.49069
Spine1  3.92752 -0.0370701 -3.68702
HEad  16.1039 1.97563 -4.15489
LeftShoulder1  0.540996 0.248097 -10.6809
LeftArm  -8.75278 2.50828 -32.0227
LeftForeArm  31.1684 -47.5543 -9.96812
LeftHand  -0.013142 5.61389 5.74857
RightShoulder  1.11357 2.30302 12.8405
RightArm  -40.9459 5.8826 19.9459
RightForeArm  9.06463 -4.74497 -6.36919
RightHand  -0.116983 -3.87711 -7.78409
LeftUpLeg  -11.9484 6.99104 3.04741
LeftLeg  35.6444 8.81047 7.09287
LeftFoot  -15.2553 -0.141253 -6.80064
LeftToes  -1.90334e-010 -8.83595e-011 4.99953e-011
2212
root  -57.9293 41.8765 26.4164 42.2208 79.0765 34.5785
RightUpLeg  -13.8459 -19.0361 -4.17584
RightLeg  39.4909 -5.85574 -5.42519
RightFoot  10.0995 -2.27606 12.3492
RightToes  -1.11029e-010 1.2921e-014 -6.02303e-014
Spine  -4.23182 -1.80775 4.10472
Spine1  4.30814 -1.50225 -2.52121
HEad  16.9511 0.242237 -3.53148
LeftShoulder1  0.786468 -1.04449 -11.1132
LeftArm  -7.0102 -1.89269 -34.3422
LeftForeArm  29.0767 -42.6281 -8.35692
LeftHand  -0.0193265 5.46301 6.09805
RightShoulder  1.09441 2.22445 12.7653
RightArm  -40.7642 5.12686 17.327
RightForeArm  6.85037 -4.71111 -6.48776
RightHand  -0.126556 -3.66809 -7.5353
LeftUpLeg  -11.2232 9.6624 0.540323
LeftLeg  30.5347 7.84877 5.32136
LeftFoot  -12.6386 -0.0570216 -11.6724
LeftToes  -1.90334e-010 -8.83595e-011 4.99953e-011
2213
root  -57.1931 42.2201 28.0049 61.5205 81.8823 53.5567
RightUpLeg  -17.62 -17.7766 -4.92036
RightLeg  45.3608 -1.6096 -2.05775
RightFoot  6.52301 -1.57019 10.2513
RightToes  -1.11029e-010 1.2921e-014 -6.02303e-014
Spine  -3.82609 -2.77162 1.35135
Spine1  3.65259 -2.73777 -1.76332
HEad  16.1842 -0.767521 -3.22151
LeftShoulder1  0.971759 -2.14152 -10.8511
LeftArm  -4.64258 -4.37323 -36.6753
LeftForeArm  28.7258 -39.052 -7.27753
LeftHand  -0.00555911 5.70377 6.67266
RightShoulder  1.02308 1.85311 12.7923
RightArm  -41.0159 5.42588 15.3567
RightForeArm  4.71428 -4.66333 -6.66528
RightHand  -0.118018 -3.94255 -8.22057
LeftUpLeg  -11.9014 12.2468 -2.37788
LeftLeg  28.1633 5.32768 3.43649
LeftFoot  -9.51491 0.323267 -16.6222
LeftToes  -1.90334e-010 -8.83595e-011 4.99953e-011
2214
root  -56.5199 42.1864 29.5131 82.0229 83.3376 73.6091
RightUpLeg  -21.0336 -15.8401 -6.32166
RightLeg  46.9641 -1.16594 -1.66109
RightFoot  0.612276 -1.37638 13.1336
RightToes  -1.11029e-010 1.2921e-014 -6.02303e-014
Spine  -1.91218 -3.60191 -0.319521
Spine1  2.19425 -3.78355 -0.692958
HEad  13.8007 -0.997855 -3.45316
LeftShoulder1  1.16162 -3.00993 -11.468
LeftArm  -1.55886 -5.94093 -37.2937
LeftForeArm  28.2855 -36.1686 -6.4984
LeftHand  0.0196048 6.04755 7.67916
RightShoulder  0.969862 1.6451 12.5114
RightArm  -42.9055 6.48442 14.4237
RightForeArm  3.25655 -4.45947 -7.7294
RightHand  -0.0999145 -4.11093 -7.54995
LeftUpLeg  -12.1128 15.5285 -4.32777
LeftLeg  26.6544 -0.205296 0.240386
LeftFoot  -10.0194 0.322189 -22.5031
LeftToes  -1.90334e-010 -8.83595e-011 4.99953e-011
2215
root  -55.8544 41.794 30.9983 101.105 84.3217 92.3918
RightUpLeg  -24.3863 -12.5642 -8.41345
RightLeg  45.9065 -2.15096 -2.68988
RightFoot  -2.77646 -0.870836 11.3409
RightToes  -1.11029e-010 1.2921e-014 -6.02303e-014
Spine  0.142953 -4.11828 -0.889488
Spine1  1.59509 -4.44079 0.133663
HEad  9.69329 -0.943775 -3.56442
LeftShoulder1  1.36755 -4.03859 -11.7233
LeftArm  0.503547 -7.08354 -38.1337
LeftForeArm  28.5299 -33.1114 -5.69527
LeftHand  0.0554737 6.46886 8.59975
RightShoulder  0.95765 1.54623 12.6695
RightArm  -44.6411 8.41352 13.4876
RightForeArm  0.781895 -4.2581 -8.70293
RightHand  -0.0603586 -4.68351 -6.6335
LeftUpLeg  -11.7046 17.4093 -4.88056
LeftLeg  26.3144 -7.65353 -3.75298
LeftFoot  -12.738 -0.269928 -27.8287
LeftToes  -1.90334e-010 -8.83595e-011 4.99953e-011
